<?xml version="1.0" encoding="UTF-8"?>
<svg width="66px" height="74px" viewBox="0 0 66 74" version="1.1" xmlns="http://www.w3.org/2000/svg" xmlns:xlink="http://www.w3.org/1999/xlink">
    <title>多边形</title>
    <g id="页面-1" stroke="none" stroke-width="1" fill="none" fill-rule="evenodd" opacity="0.300000012">
        <g id="个人中心（未成为艺术家）备份-7" transform="translate(-654.000000, -64.000000)" stroke="#E0260E">
            <g id="编组-23" transform="translate(636.000000, 50.000000)">
                <path d="M45.25,16.8971143 C48.8081124,14.8428372 53.1918876,14.8428372 56.75,16.8971143 L56.75,16.8971143 L77.6589653,28.9689111 C79.4380215,29.9960497 80.8755215,31.4587341 81.8682575,33.1782032 C82.8609934,34.8976723 83.4089653,36.8739261 83.4089653,38.9282032 L83.4089653,38.9282032 L83.4089653,63.0717968 C83.4089653,65.1260739 82.8609934,67.1023277 81.8682575,68.8217968 C80.8755215,70.5412659 79.4380215,72.0039503 77.6589653,73.0310889 L77.6589653,73.0310889 L56.75,85.1028857 C53.1918876,87.1571628 48.8081124,87.1571628 45.25,85.1028857 L45.25,85.1028857 L24.3410347,73.0310889 C20.7829223,70.9768118 18.5910347,67.1803511 18.5910347,63.0717968 L18.5910347,63.0717968 L18.5910347,38.9282032 C18.5910347,34.8196489 20.7829223,31.0231882 24.3410347,28.9689111 L24.3410347,28.9689111 Z" id="多边形"></path>
            </g>
        </g>
    </g>
</svg>